<?xml version="1.0" encoding="UTF-8" standalone="no"?>
<svg xmlns="http://www.w3.org/2000/svg" xmlns:xlink="http://www.w3.org/1999/xlink" width="500" zoomAndPan="magnify" viewBox="0 0 375 374.999991" height="500" preserveAspectRatio="xMidYMid meet" version="1.0">
  <defs>
    <clipPath id="e03e057515">
      <path d="M 18 25.140625 L 341 25.140625 L 341 349 L 18 349 Z M 18 25.140625 " clip-rule="nonzero"/>
    </clipPath>
    <clipPath id="b70579126d">
      <path d="M 231 0 L 364 0 L 364 116 L 231 116 Z M 231 0 " clip-rule="nonzero"/>
    </clipPath>
    <clipPath id="f9f71ad263">
      <path d="M 363.695312 41.417969 L 278.261719 115.753906 L 231 61.4375 L 316.433594 -12.902344 Z M 363.695312 41.417969 " clip-rule="nonzero"/>
    </clipPath>
    <clipPath id="dfa6866ff0">
      <path d="M 17 41 L 132.839844 41 L 132.839844 86 L 17 86 Z M 17 41 " clip-rule="nonzero"/>
    </clipPath>
    <clipPath id="32c677bd42">
      <path d="M 132.695312 41.417969 L 47.261719 115.753906 L 0 61.4375 L 85.433594 -12.902344 Z M 132.695312 41.417969 " clip-rule="nonzero"/>
    </clipPath>
    <clipPath id="c30db0a3b9">
      <path d="M 47.304688 115.714844 L 132.742188 41.378906 L 85.480469 -12.9375 L 0.0429688 61.398438 Z M 47.304688 115.714844 " clip-rule="nonzero"/>
    </clipPath>
    <clipPath id="7a60959404">
      <rect x="0" width="133" y="0" height="116"/>
    </clipPath>
  </defs>
  <g clip-path="url(#e03e057515)">
    <path fill="#737373" d="M 183.390625 347.992188 C 173.4375 347.683594 163.488281 346.941406 153.617188 345.585938 C 138.597656 343.324219 124.542969 337.097656 110.578125 331.398438 C 68.769531 313.320312 32.144531 278.617188 21.285156 233.292969 C 11.359375 186.957031 25.101562 132.933594 51.6875 94.214844 C 68.164062 71.339844 91.078125 52.875 116.769531 41.304688 C 135.558594 33.847656 155.371094 28.203125 175.503906 26.03125 C 185.894531 25.152344 196.316406 25.945312 206.65625 27.074219 C 219.472656 28.261719 232.933594 29.753906 243.292969 38.144531 C 249.527344 42.277344 246.929688 52.042969 239.234375 51.941406 C 235.308594 51.816406 231.863281 49.746094 228.261719 48.410156 C 217.808594 45.378906 206.6875 45.742188 195.902344 44.949219 C 180.703125 43.851562 165.679688 46.503906 151.160156 50.890625 C 141.097656 53.875 130.941406 56.75 121.484375 61.390625 C 109.191406 67.433594 98.089844 75.605469 87.859375 84.671875 C 51.695312 117.851562 36.027344 170.394531 40.085938 218.523438 C 44.71875 250.722656 65.464844 279.070312 92.203125 296.890625 C 110.847656 308.867188 131.308594 318.214844 152.824219 323.636719 C 167.246094 326.160156 182.015625 326.964844 196.640625 326.417969 C 222.554688 324.226562 247.078125 310.570312 266.375 293.957031 C 288.558594 274.871094 303.148438 248.433594 313.519531 221.414062 C 322.652344 191.304688 319.207031 157.953125 307.289062 129.09375 C 304.347656 120.089844 299.4375 112.214844 293.304688 105.054688 C 285.828125 93.566406 275.257812 85.046875 264.925781 76.296875 C 262.242188 74.011719 259.46875 71.851562 256.617188 69.78125 C 249.070312 64.464844 252.613281 51.554688 261.71875 50.648438 C 269.976562 49.835938 276.21875 58.609375 282.3125 63.09375 C 285.976562 66.226562 289.816406 69.140625 293.40625 72.367188 C 300.503906 78.695312 306.21875 86.320312 311.808594 93.949219 C 315.027344 98.070312 318.335938 102.042969 320.851562 106.65625 C 338.636719 141.988281 345.484375 183.71875 335.679688 222.378906 C 326.191406 251.832031 310.476562 279.960938 288.945312 302.296875 C 260.90625 329.589844 223.417969 350.199219 183.390625 347.992188 Z M 150.765625 179.71875 C 144.296875 178.847656 140.015625 171.960938 142.1875 165.761719 C 143.414062 157.558594 144.589844 149.328125 146.078125 141.148438 C 148.285156 131.984375 147.800781 120.675781 154.953125 113.699219 C 158.675781 110.609375 164.542969 111.261719 167.027344 115.542969 C 169.019531 118.644531 168.277344 122.179688 167.75 125.554688 C 166.75 132.390625 166.136719 139.277344 165.28125 146.136719 C 164.222656 154.300781 163.433594 162.484375 162.671875 170.683594 C 162.046875 176.425781 156.328125 180.488281 150.765625 179.71875 Z M 217.484375 186.105469 C 205.417969 183.25 208.339844 173.59375 209.777344 164.421875 C 210.945312 155.605469 212.046875 146.78125 213.859375 138.074219 C 215.414062 131.75 215.273438 124.714844 218.820312 119.097656 C 223.605469 112.511719 234.679688 114.738281 236.65625 122.605469 C 237.5625 125.832031 236.726562 129.222656 236.210938 132.453125 C 235.203125 139.335938 233.714844 146.121094 232.757812 153.011719 C 231.738281 160.808594 230.84375 168.621094 229.644531 176.390625 C 229.113281 182.417969 223.40625 186.957031 217.484375 186.105469 Z M 170.472656 263.898438 C 160.382812 262.171875 151.398438 256.9375 143.039062 251.257812 C 135.992188 246.785156 130.6875 240.203125 125.914062 233.460938 C 121.34375 226.4375 115.402344 214.632812 118.304688 206.289062 C 120.433594 200.746094 128.1875 198.503906 132.792969 202.371094 C 137.195312 206.183594 137.855469 212.464844 140.558594 217.394531 C 143.421875 222.417969 147.238281 226.933594 151.335938 230.996094 C 165.839844 242.851562 182.699219 247.175781 200.773438 241.246094 C 211.617188 236.878906 219.117188 227.074219 225.484375 217.683594 C 231.011719 207.640625 247.179688 213.1875 245.382812 224.554688 C 244.40625 230.675781 232.042969 245.007812 227.050781 249.335938 C 212.3125 263.820312 190.285156 267.761719 170.472656 263.898438 Z M 170.472656 263.898438 " fill-opacity="1" fill-rule="nonzero"/>
  </g>
  <g clip-path="url(#b70579126d)">
    <g clip-path="url(#f9f71ad263)">
      <g transform="matrix(1, 0, 0, 1, 231, 0)">
        <g clip-path="url(#7a60959404)">
          <g clip-path="url(#dfa6866ff0)">
            <g clip-path="url(#32c677bd42)">
              <g clip-path="url(#c30db0a3b9)">
                <path fill="#737373" d="M 131.910156 42.078125 C 131.664062 42.3125 131.40625 42.53125 131.132812 42.738281 C 130.976562 42.863281 130.804688 42.992188 130.621094 43.125 C 130.433594 43.261719 130.234375 43.398438 130.023438 43.542969 C 129.597656 43.828125 129.117188 44.136719 128.585938 44.46875 C 128.054688 44.796875 127.46875 45.136719 126.839844 45.5 C 126.523438 45.683594 126.195312 45.871094 125.851562 46.058594 L 124.792969 46.628906 L 123.664062 47.226562 C 123.273438 47.429688 122.871094 47.625 122.460938 47.832031 C 119.164062 49.476562 115.136719 51.273438 110.523438 53.023438 C 105.476562 54.9375 100.34375 56.59375 95.125 57.984375 C 94.425781 58.164062 93.71875 58.34375 93.007812 58.527344 C 92.296875 58.707031 91.585938 58.894531 90.859375 59.058594 L 88.679688 59.5625 L 88.128906 59.691406 C 87.945312 59.734375 87.761719 59.773438 87.578125 59.8125 L 86.464844 60.042969 L 84.226562 60.503906 C 83.851562 60.585938 83.472656 60.644531 83.097656 60.71875 L 81.960938 60.921875 L 79.675781 61.335938 C 79.292969 61.40625 78.910156 61.460938 78.527344 61.519531 L 77.371094 61.699219 C 71.140625 62.660156 64.878906 63.289062 58.582031 63.578125 C 52.304688 63.882812 46.097656 63.808594 40.199219 63.476562 L 39.097656 63.417969 C 38.730469 63.394531 38.367188 63.367188 38.003906 63.339844 L 35.839844 63.183594 C 35.480469 63.160156 35.125 63.121094 34.769531 63.09375 L 33.707031 62.996094 L 33.441406 62.96875 L 33.378906 62.964844 L 33.34375 62.960938 C 33.328125 62.960938 33.328125 62.960938 33.328125 62.960938 L 33.316406 62.964844 C 33.308594 62.96875 33.304688 62.96875 33.296875 62.96875 C 33.285156 62.96875 33.277344 62.972656 33.265625 62.972656 L 33.140625 62.988281 C 32.820312 63.035156 32.601562 63.078125 32.460938 63.128906 L 32.457031 63.132812 C 32.457031 63.132812 32.460938 63.136719 32.460938 63.140625 L 32.464844 63.164062 L 32.480469 63.203125 L 32.507812 63.285156 C 32.527344 63.335938 32.542969 63.386719 32.5625 63.4375 C 32.59375 63.53125 32.628906 63.613281 32.660156 63.683594 C 32.691406 63.757812 32.71875 63.820312 32.75 63.871094 C 32.761719 63.898438 32.777344 63.925781 32.789062 63.945312 L 32.808594 63.980469 C 32.8125 63.984375 32.816406 63.988281 32.820312 63.996094 L 32.851562 64.28125 L 33.71875 72.207031 C 34.203125 76.679688 34.492188 79.421875 34.519531 79.777344 C 34.734375 82.394531 31.484375 84.796875 27.261719 85.140625 C 23.042969 85.488281 19.445312 83.644531 19.230469 81.023438 C 19.203125 80.667969 19.039062 77.917969 18.792969 73.421875 L 18.367188 65.457031 L 17.773438 56.460938 L 17.453125 51.554688 L 17.289062 49.042969 L 17.203125 47.777344 L 17.164062 47.136719 L 17.140625 46.820312 C 17.140625 46.765625 17.132812 46.710938 17.132812 46.660156 L 17.132812 46.511719 L 24.414062 47.890625 L 26.277344 48.242188 C 26.902344 48.359375 27.53125 48.484375 28.148438 48.589844 L 31.898438 49.234375 C 32.523438 49.339844 33.15625 49.457031 33.78125 49.550781 C 33.941406 49.574219 34.09375 49.605469 34.253906 49.625 C 34.417969 49.644531 34.578125 49.667969 34.738281 49.691406 L 35.117188 49.75 L 35.363281 49.785156 L 36.339844 49.941406 C 36.667969 49.992188 36.996094 50.050781 37.324219 50.09375 L 39.324219 50.378906 C 39.664062 50.421875 40 50.476562 40.339844 50.515625 L 41.359375 50.640625 C 46.816406 51.324219 52.59375 51.816406 58.484375 51.984375 C 64.375 52.160156 70.371094 52.058594 76.261719 51.675781 L 77.367188 51.609375 C 77.734375 51.585938 78.101562 51.566406 78.464844 51.53125 L 80.65625 51.339844 L 81.746094 51.246094 C 82.109375 51.214844 82.472656 51.1875 82.832031 51.144531 L 84.988281 50.910156 L 86.058594 50.792969 C 86.238281 50.777344 86.414062 50.753906 86.59375 50.730469 L 87.125 50.664062 L 89.242188 50.394531 C 89.945312 50.308594 90.636719 50.199219 91.328125 50.097656 L 93.394531 49.796875 C 98.855469 48.945312 103.996094 47.902344 108.632812 46.828125 C 113.269531 45.753906 117.402344 44.644531 120.867188 43.6875 C 121.296875 43.566406 121.722656 43.457031 122.136719 43.339844 L 123.335938 43 L 124.476562 42.6875 L 125.542969 42.390625 C 126.234375 42.195312 126.878906 42.03125 127.472656 41.875 C 128.066406 41.714844 128.613281 41.578125 129.109375 41.460938 C 129.355469 41.402344 129.589844 41.355469 129.8125 41.304688 C 130.03125 41.257812 130.238281 41.214844 130.433594 41.175781 C 130.765625 41.113281 131.101562 41.066406 131.4375 41.035156 C 131.992188 40.988281 132.324219 41.050781 132.40625 41.222656 C 132.488281 41.398438 132.316406 41.6875 131.910156 42.078125 Z M 131.910156 42.078125 " fill-opacity="1" fill-rule="nonzero"/>
              </g>
            </g>
          </g>
        </g>
      </g>
    </g>
  </g>
</svg>
