<svg xmlns="http://www.w3.org/2000/svg" xmlns:xlink="http://www.w3.org/1999/xlink" width="32" height="32" viewBox="0 0 375 375" preserveAspectRatio="xMidYMid meet" version="1.0">
  <g clip-path="url(#e03e057515)">
    <path fill="#737373" d="M 183.390625 347.992188 C 173.4375 347.683594 163.488281 346.941406 153.617188 345.585938 C 138.597656 343.324219 124.542969 337.097656 110.578125 331.398438 C 68.769531 313.320312 32.144531 278.617188 21.285156 233.292969 C 11.359375 186.957031 25.101562 132.933594 51.6875 94.214844 C 68.164062 71.339844 91.078125 52.875 116.769531 41.304688 C 135.558594 33.847656 155.371094 28.203125 175.503906 26.03125 C 185.894531 25.152344 196.316406 25.945312 206.65625 27.074219 C 219.472656 28.261719 232.933594 29.753906 243.292969 38.144531 C 249.527344 42.277344 246.929688 52.042969 239.234375 51.941406 C 235.308594 51.816406 231.863281 49.746094 228.261719 48.410156 C 217.808594 45.378906 206.6875 45.742188 195.902344 44.949219 C 180.703125 43.851562 165.679688 46.503906 151.160156 50.890625 C 141.097656 53.875 130.941406 56.75 121.484375 61.390625 C 109.191406 67.433594 98.089844 75.605469 87.859375 84.671875 C 51.695312 117.851562 36.027344 170.394531 40.085938 218.523438 C 44.71875 250.722656 65.464844 279.070312 92.203125 296.890625 C 110.847656 308.867188 131.308594 318.214844 152.824219 323.636719 C 167.246094 326.160156 182.015625 326.964844 196.640625 326.417969 C 222.554688 324.226562 247.078125 310.570312 266.375 293.957031 C 288.558594 274.871094 303.148438 248.433594 313.519531 221.414062 C 322.652344 191.304688 319.207031 157.953125 307.289062 129.09375 C 304.347656 120.089844 299.4375 112.214844 293.304688 105.054688 C 285.828125 93.566406 275.257812 85.046875 264.925781 76.296875 C 262.242188 74.011719 259.46875 71.851562 256.617188 69.78125 C 249.070312 64.464844 252.613281 51.554688 261.71875 50.648438 C 269.976562 49.835938 276.21875 58.609375 282.3125 63.09375 C 285.976562 66.226562 289.816406 69.140625 293.40625 72.367188 C 300.503906 78.695312 306.21875 86.320312 311.808594 93.949219 C 315.027344 98.070312 318.335938 102.042969 320.851562 106.65625 C 338.636719 141.988281 345.484375 183.71875 335.679688 222.378906 C 326.191406 251.832031 310.476562 279.960938 288.945312 302.296875 C 260.90625 329.589844 223.417969 350.199219 183.390625 347.992188 Z M 150.765625 179.71875 C 144.296875 178.847656 140.015625 171.960938 142.1875 165.761719 C 143.414062 157.558594 144.589844 149.328125 146.078125 141.148438 C 148.285156 131.984375 147.800781 120.675781 154.953125 113.699219 C 158.675781 110.609375 164.542969 111.261719 167.027344 115.542969 C 169.019531 118.644531 168.277344 122.179688 167.75 125.554688 C 166.75 132.390625 166.136719 139.277344 165.28125 146.136719 C 164.222656 154.300781 163.433594 162.484375 162.671875 170.683594 C 162.046875 176.425781 156.328125 180.488281 150.765625 179.71875 Z M 217.484375 186.105469 C 205.417969 183.25 208.339844 173.59375 209.777344 164.421875 C 210.945312 155.605469 212.046875 146.78125 213.859375 138.074219 C 215.414062 131.75 215.273438 124.714844 218.820312 119.097656 C 223.605469 112.511719 234.679688 114.738281 236.65625 122.605469 C 237.5625 125.832031 236.726562 129.222656 236.210938 132.453125 C 235.203125 139.335938 233.714844 146.121094 232.757812 153.011719 C 231.738281 160.808594 230.84375 168.621094 229.644531 176.390625 C 229.113281 182.417969 223.40625 186.957031 217.484375 186.105469 Z M 170.472656 263.898438 C 160.382812 262.171875 151.398438 256.9375 143.039062 251.257812 C 135.992188 246.785156 130.6875 240.203125 125.914062 233.460938 C 121.34375 226.4375 115.402344 214.632812 118.304688 206.289062 C 120.433594 200.746094 128.1875 198.503906 132.792969 202.371094 C 137.195312 206.183594 137.855469 212.464844 140.558594 217.394531 C 143.421875 222.417969 147.238281 226.933594 151.335938 230.996094 C 165.839844 242.851562 182.699219 247.175781 200.773438 241.246094 C 211.617188 236.878906 219.117188 227.074219 225.484375 217.683594 C 231.011719 207.640625 247.179688 213.1875 245.382812 224.554688 C 244.40625 230.675781 232.042969 245.007812 227.050781 249.335938 C 212.3125 263.820312 190.285156 267.761719 170.472656 263.898438 Z M 170.472656 263.898438 " fill-opacity="1" fill-rule="nonzero"/>
  </g>
</svg>
